<svg width="235" height="51" viewBox="0 0 235 51" fill="none" xmlns="http://www.w3.org/2000/svg">
<g filter="url(#filter0_i_81_503)">
<path d="M58.9981 33.583C58.3529 33.583 57.8534 33.4077 57.4995 33.0571C57.1665 32.6859 57 32.1806 57 31.5413V13.2898C57 12.6299 57.1665 12.1349 57.4995 11.8049C57.8534 11.4544 58.3529 11.2791 58.9981 11.2791C59.6433 11.2791 60.1325 11.4544 60.4655 11.8049C60.8193 12.1349 60.9962 12.6299 60.9962 13.2898V21.1782H61.0587L70.019 12.269C70.352 11.939 70.685 11.6915 71.0181 11.5265C71.3511 11.3615 71.7257 11.2791 72.142 11.2791C72.7456 11.2791 73.1723 11.4337 73.422 11.7431C73.6926 12.0524 73.7967 12.4133 73.7342 12.8258C73.6926 13.2383 73.4949 13.6198 73.141 13.9704L64.0246 22.9105L64.0559 21.1163L73.5781 30.7061C74.0152 31.1185 74.2442 31.5516 74.265 32.0053C74.2858 32.459 74.1401 32.8406 73.8279 33.1499C73.5365 33.4386 73.0994 33.583 72.5166 33.583C72.0171 33.583 71.6112 33.4799 71.299 33.2737C71.0076 33.0674 70.6642 32.7684 70.2688 32.3765L61.0587 23.2508H60.9962V31.5413C60.9962 32.1806 60.8297 32.6859 60.4967 33.0571C60.1637 33.4077 59.6642 33.583 58.9981 33.583ZM83.9538 33.6449C82.3719 33.6449 80.9982 33.3252 79.8327 32.6859C78.6671 32.0466 77.7617 31.1392 77.1165 29.9636C76.4713 28.7675 76.1486 27.3651 76.1486 25.7565C76.1486 24.5397 76.3255 23.457 76.6794 22.5084C77.054 21.5391 77.5848 20.7141 78.2716 20.0336C78.9585 19.3324 79.7806 18.8065 80.7381 18.4559C81.6955 18.0847 82.7674 17.8991 83.9538 17.8991C85.5356 17.8991 86.9093 18.2187 88.0749 18.8581C89.2405 19.4974 90.1459 20.4048 90.7911 21.5803C91.4363 22.7558 91.7589 24.1479 91.7589 25.7565C91.7589 26.9733 91.5716 28.0663 91.197 29.0356C90.8431 30.0049 90.3228 30.8401 89.6359 31.5413C88.9491 32.2219 88.1269 32.7478 87.1695 33.119C86.2121 33.4696 85.1402 33.6449 83.9538 33.6449ZM83.9538 30.7061C84.7239 30.7061 85.4003 30.5205 85.9831 30.1492C86.5659 29.778 87.0134 29.2315 87.3256 28.5097C87.6586 27.7673 87.8251 26.8495 87.8251 25.7565C87.8251 24.1067 87.4713 22.8796 86.7636 22.0753C86.056 21.2503 85.1194 20.8379 83.9538 20.8379C83.1837 20.8379 82.5072 21.0235 81.9244 21.3947C81.3417 21.7453 80.8838 22.2918 80.5507 23.0343C80.2385 23.7561 80.0824 24.6635 80.0824 25.7565C80.0824 27.3857 80.4363 28.6231 81.1439 29.4687C81.8516 30.2936 82.7882 30.7061 83.9538 30.7061ZM96.978 33.583C96.3327 33.583 95.8332 33.418 95.4794 33.088C95.1464 32.7375 94.9799 32.2425 94.9799 31.6032V19.9098C94.9799 19.2705 95.1464 18.7859 95.4794 18.4559C95.8124 18.1259 96.2807 17.961 96.8843 17.961C97.4879 17.961 97.9562 18.1259 98.2892 18.4559C98.6223 18.7859 98.7888 19.2705 98.7888 19.9098V21.8587H98.4766C98.768 20.6213 99.3403 19.683 100.194 19.0437C101.047 18.4044 102.181 18.0228 103.597 17.8991C104.034 17.8578 104.377 17.9713 104.627 18.2394C104.898 18.4868 105.054 18.8787 105.095 19.4149C105.137 19.9305 105.012 20.3532 104.721 20.6832C104.45 20.9926 104.034 21.1782 103.472 21.24L102.785 21.3019C101.515 21.4256 100.558 21.8175 99.9127 22.4774C99.2675 23.1167 98.9449 24.0242 98.9449 25.1997V31.6032C98.9449 32.2425 98.7784 32.7375 98.4453 33.088C98.1123 33.418 97.6232 33.583 96.978 33.583ZM109.143 39.1513C108.518 39.1513 108.039 38.9863 107.706 38.6563C107.373 38.3263 107.207 37.8417 107.207 37.2024V19.9098C107.207 19.2705 107.373 18.7859 107.706 18.4559C108.039 18.1259 108.508 17.961 109.111 17.961C109.736 17.961 110.214 18.1259 110.547 18.4559C110.881 18.7859 111.047 19.2705 111.047 19.9098V22.3228L110.704 21.3947C111.016 20.3429 111.651 19.4974 112.608 18.8581C113.586 18.2187 114.721 17.8991 116.011 17.8991C117.343 17.8991 118.509 18.2187 119.508 18.8581C120.528 19.4974 121.319 20.4048 121.881 21.5803C122.443 22.7352 122.724 24.1273 122.724 25.7565C122.724 27.3651 122.443 28.7675 121.881 29.9636C121.319 31.1392 120.538 32.0466 119.539 32.6859C118.54 33.3252 117.364 33.6449 116.011 33.6449C114.741 33.6449 113.628 33.3355 112.67 32.7168C111.713 32.0775 111.068 31.2526 110.735 30.2421H111.109V37.2024C111.109 37.8417 110.933 38.3263 110.579 38.6563C110.246 38.9863 109.767 39.1513 109.143 39.1513ZM114.918 30.7061C115.688 30.7061 116.365 30.5205 116.948 30.1492C117.53 29.778 117.978 29.2315 118.29 28.5097C118.623 27.7673 118.79 26.8495 118.79 25.7565C118.79 24.1067 118.436 22.8796 117.728 22.0753C117.021 21.2503 116.084 20.8379 114.918 20.8379C114.148 20.8379 113.472 21.0235 112.889 21.3947C112.306 21.7453 111.848 22.2918 111.515 23.0343C111.203 23.7561 111.047 24.6635 111.047 25.7565C111.047 27.3857 111.401 28.6231 112.109 29.4687C112.816 30.2936 113.753 30.7061 114.918 30.7061ZM130.953 33.6449C129.85 33.6449 128.861 33.4386 127.987 33.0262C127.134 32.5931 126.457 32.0156 125.958 31.2938C125.479 30.572 125.24 29.7574 125.24 28.85C125.24 27.7363 125.531 26.8599 126.114 26.2205C126.697 25.5606 127.644 25.0863 128.955 24.7975C130.266 24.5088 132.025 24.3644 134.231 24.3644H135.792V26.5918H134.263C132.972 26.5918 131.942 26.6536 131.172 26.7774C130.402 26.9011 129.85 27.1176 129.517 27.427C129.205 27.7157 129.049 28.1282 129.049 28.6644C129.049 29.3449 129.288 29.9018 129.767 30.3349C130.246 30.7679 130.912 30.9845 131.765 30.9845C132.452 30.9845 133.055 30.8298 133.576 30.5205C134.117 30.1905 134.544 29.7471 134.856 29.1903C135.168 28.6334 135.324 27.9941 135.324 27.2723V23.7148C135.324 22.6837 135.095 21.9412 134.637 21.4875C134.179 21.0338 133.409 20.807 132.327 20.807C131.723 20.807 131.068 20.8791 130.36 21.0235C129.673 21.1679 128.945 21.4153 128.175 21.7659C127.779 21.9515 127.425 22.0031 127.113 21.9206C126.822 21.8381 126.593 21.6731 126.426 21.4256C126.26 21.1575 126.177 20.8688 126.177 20.5595C126.177 20.2501 126.26 19.9511 126.426 19.6624C126.593 19.353 126.874 19.1262 127.269 18.9818C128.227 18.59 129.142 18.3116 130.017 18.1466C130.912 17.9816 131.723 17.8991 132.452 17.8991C133.95 17.8991 135.178 18.1259 136.136 18.5797C137.114 19.0334 137.843 19.7242 138.321 20.6523C138.8 21.5597 139.039 22.7352 139.039 24.1788V31.6032C139.039 32.2425 138.883 32.7375 138.571 33.088C138.259 33.418 137.811 33.583 137.229 33.583C136.646 33.583 136.188 33.418 135.855 33.088C135.543 32.7375 135.387 32.2425 135.387 31.6032V30.1183H135.636C135.491 30.8401 135.199 31.4691 134.762 32.0053C134.346 32.5209 133.815 32.9231 133.17 33.2118C132.525 33.5005 131.786 33.6449 130.953 33.6449ZM146.72 39.1513C146.262 39.1513 145.887 39.0275 145.596 38.78C145.304 38.5532 145.127 38.2438 145.065 37.852C145.023 37.4602 145.096 37.0477 145.284 36.6146L147.407 31.9435V33.5521L141.724 20.5285C141.537 20.0748 141.475 19.6521 141.537 19.2602C141.599 18.8684 141.787 18.559 142.099 18.3322C142.432 18.0847 142.88 17.961 143.442 17.961C143.92 17.961 144.305 18.0744 144.597 18.3012C144.888 18.5075 145.148 18.9096 145.377 19.5077L149.592 29.9327H148.655L152.964 19.4768C153.193 18.8993 153.463 18.5075 153.776 18.3012C154.088 18.0744 154.504 17.961 155.024 17.961C155.482 17.961 155.846 18.0847 156.117 18.3322C156.388 18.559 156.554 18.8684 156.617 19.2602C156.679 19.6314 156.606 20.0439 156.398 20.4976L148.811 37.6664C148.541 38.2438 148.249 38.6357 147.937 38.8419C147.625 39.0481 147.219 39.1513 146.72 39.1513ZM169.662 33.3355C169.329 33.3355 169.068 33.2427 168.881 33.0571C168.694 32.8715 168.6 32.6034 168.6 32.2528V12.6092C168.6 12.2587 168.694 11.9906 168.881 11.8049C169.068 11.6193 169.329 11.5265 169.662 11.5265H176.998C178.518 11.5265 179.798 11.7534 180.839 12.2071C181.879 12.6402 182.681 13.2795 183.243 14.125C183.805 14.9706 184.086 16.0121 184.086 17.2495C184.086 18.6106 183.669 19.7449 182.837 20.6523C182.025 21.5597 180.922 22.1578 179.527 22.4465V22.0134C181.088 22.1784 182.316 22.7352 183.211 23.6839C184.127 24.6119 184.585 25.8493 184.585 27.3961C184.585 29.3346 183.961 30.8092 182.712 31.8197C181.463 32.8303 179.694 33.3355 177.404 33.3355H169.662ZM170.473 31.7269H177.248C179.059 31.7269 180.412 31.3763 181.307 30.6751C182.202 29.9533 182.649 28.8706 182.649 27.427C182.649 25.9421 182.202 24.8491 181.307 24.1479C180.412 23.4467 179.059 23.0961 177.248 23.0961H170.473V31.7269ZM170.473 21.4875H176.78C178.528 21.4875 179.86 21.1369 180.776 20.4357C181.692 19.7139 182.15 18.6725 182.15 17.3113C182.15 15.9502 181.692 14.919 180.776 14.2179C179.86 13.496 178.528 13.1351 176.78 13.1351H170.473V21.4875ZM193.854 33.583C192.835 33.583 191.919 33.3871 191.107 32.9952C190.316 32.6034 189.681 32.0672 189.203 31.3866C188.745 30.7061 188.516 29.943 188.516 29.0975C188.516 27.9838 188.797 27.1073 189.359 26.468C189.921 25.8287 190.868 25.3853 192.2 25.1378C193.532 24.8697 195.363 24.7357 197.695 24.7357H199.037V26.1277H197.726C195.853 26.1277 194.385 26.2102 193.324 26.3752C192.283 26.5196 191.555 26.798 191.138 27.2104C190.722 27.6229 190.514 28.2004 190.514 28.9428C190.514 29.8708 190.836 30.6236 191.482 31.201C192.127 31.7785 193.001 32.0672 194.104 32.0672C194.999 32.0672 195.78 31.861 196.446 31.4485C197.133 31.0154 197.674 30.4277 198.069 29.6852C198.465 28.9428 198.662 28.0972 198.662 27.1486V23.622C198.662 22.2403 198.381 21.24 197.819 20.6213C197.257 19.982 196.362 19.6624 195.134 19.6624C194.344 19.6624 193.573 19.7655 192.824 19.9717C192.096 20.1779 191.315 20.5079 190.483 20.9616C190.254 21.0854 190.046 21.1266 189.858 21.0854C189.692 21.0441 189.556 20.9616 189.452 20.8379C189.369 20.7141 189.307 20.5698 189.265 20.4048C189.244 20.2192 189.275 20.0439 189.359 19.8789C189.442 19.7139 189.588 19.5799 189.796 19.4768C190.67 19.0024 191.555 18.6518 192.45 18.425C193.365 18.1775 194.25 18.0538 195.103 18.0538C196.331 18.0538 197.341 18.26 198.132 18.6725C198.943 19.0849 199.537 19.7036 199.911 20.5285C200.307 21.3535 200.504 22.4156 200.504 23.7148V32.5622C200.504 32.8715 200.432 33.1087 200.286 33.2737C200.14 33.4386 199.922 33.5211 199.63 33.5211C199.339 33.5211 199.11 33.4386 198.943 33.2737C198.777 33.1087 198.694 32.8715 198.694 32.5622V29.7162H199.006C198.819 30.5205 198.486 31.2113 198.007 31.7888C197.528 32.3662 196.935 32.8096 196.227 33.119C195.52 33.4283 194.729 33.583 193.854 33.583ZM206.451 33.5211C206.139 33.5211 205.899 33.4386 205.733 33.2737C205.566 33.1087 205.483 32.8715 205.483 32.5622V19.1055C205.483 18.7756 205.566 18.5281 205.733 18.3631C205.899 18.1981 206.139 18.1156 206.451 18.1156C206.742 18.1156 206.961 18.1981 207.107 18.3631C207.273 18.5281 207.356 18.7756 207.356 19.1055V22.0134L207.013 21.8278C207.429 20.5904 208.137 19.6521 209.136 19.0127C210.156 18.3734 211.321 18.0538 212.633 18.0538C213.84 18.0538 214.839 18.2703 215.63 18.7034C216.441 19.1159 217.045 19.7552 217.441 20.6213C217.836 21.4875 218.034 22.5702 218.034 23.8695V32.5622C218.034 32.8715 217.951 33.1087 217.784 33.2737C217.617 33.4386 217.389 33.5211 217.097 33.5211C216.785 33.5211 216.546 33.4386 216.379 33.2737C216.213 33.1087 216.129 32.8715 216.129 32.5622V24.0242C216.129 22.5187 215.827 21.4256 215.224 20.7451C214.62 20.0439 213.663 19.6933 212.352 19.6933C210.853 19.6933 209.646 20.1573 208.73 21.0854C207.835 21.9928 207.388 23.2199 207.388 24.7666V32.5622C207.388 33.2015 207.075 33.5211 206.451 33.5211ZM223.921 33.5211C223.609 33.5211 223.369 33.4386 223.203 33.2737C223.036 33.1087 222.953 32.8715 222.953 32.5622V12.2999C222.953 11.9699 223.036 11.7328 223.203 11.5884C223.369 11.4234 223.609 11.3409 223.921 11.3409C224.212 11.3409 224.441 11.4234 224.608 11.5884C224.774 11.7328 224.858 11.9699 224.858 12.2999V25.1378H224.92L231.913 18.7962C232.142 18.59 232.34 18.425 232.507 18.3012C232.694 18.1775 232.933 18.1156 233.225 18.1156C233.474 18.1156 233.672 18.1878 233.818 18.3322C233.964 18.4765 234.026 18.6518 234.005 18.8581C234.005 19.0437 233.901 19.2499 233.693 19.4768L226.262 26.1896V24.9831L234.349 32.0981C234.598 32.325 234.723 32.5518 234.723 32.7787C234.744 32.9849 234.682 33.1602 234.536 33.3046C234.39 33.449 234.193 33.5211 233.943 33.5211C233.672 33.5211 233.443 33.4593 233.256 33.3355C233.069 33.2324 232.84 33.0571 232.569 32.8096L224.92 26.1277H224.858V32.5622C224.858 33.2015 224.545 33.5211 223.921 33.5211Z" fill="white"/>
<path d="M41.6046 0.379395H6.39545C2.86334 0.379395 0 3.21652 0 6.71629V43.7018C0 47.2016 2.86334 50.0387 6.39545 50.0387H41.6046C45.1367 50.0387 48 47.2016 48 43.7018V6.71629C48 3.21652 45.1367 0.379395 41.6046 0.379395Z" fill="#ADBECE"/>
<path fill-rule="evenodd" clip-rule="evenodd" d="M30.0122 27.9641C30.593 27.3814 31.5417 27.4472 32.0789 28.0693L38.592 35.607C40.9131 38.2932 38.9746 42.4222 35.4175 42.4222H29.8677C28.7333 42.4222 27.6535 41.9388 26.9055 41.0931L23.7707 37.5521C23.2672 36.9826 23.3241 36.1169 23.898 35.6171C24.4726 35.1181 25.3463 35.1745 25.8507 35.7439L28.9854 39.285C29.2072 39.5357 29.5281 39.6804 29.867 39.6804H35.4167C36.626 39.6804 37.2639 38.2862 36.4893 37.3903L29.9457 29.8177C29.4743 29.2723 29.511 28.4661 30.0106 27.9641H30.0122ZM20.4493 19.5699C21.0459 20.0433 21.1419 20.906 20.6648 21.497L17.384 25.5564C17.384 25.5564 17.3817 25.5626 17.384 25.5657L20.4229 29.3118C20.9405 29.95 20.8312 30.8862 20.1456 31.3441C19.5554 31.7388 18.7488 31.625 18.2952 31.0656L15.0426 27.0558C14.3367 26.1861 14.3352 24.9437 15.0394 24.0725L18.5053 19.7842C18.9831 19.1931 19.8537 19.0978 20.4501 19.5707L20.4493 19.5699ZM7.37933 9.33738C7.37933 8.597 7.98524 7.99664 8.7324 7.99664H15.8342C16.2457 7.99664 16.6337 8.18151 16.8906 8.5003L26.9438 20.9601C27.4106 21.538 27.3154 22.3821 26.7322 22.8439C26.1489 23.3066 25.2971 23.2122 24.831 22.6343L15.5594 11.1431C15.3221 10.8491 14.9629 10.6781 14.5827 10.6781H10.6273C10.3275 10.6781 10.0847 10.9187 10.0847 11.2158V37.8081C10.0847 38.6089 9.42262 39.2565 8.61685 39.1891C7.92356 39.131 7.37933 38.5555 7.37933 37.8538V9.33659V9.33738ZM28.9473 11.2437L26.4604 14.8064C26.0482 15.3967 25.2519 15.5676 24.6351 15.2164C23.9183 14.8087 23.741 13.8826 24.2111 13.2088L26.672 9.68323C27.4091 8.62716 28.6232 7.99585 29.9193 7.99585H36.1381C39.4501 7.99585 41.2903 11.793 39.2214 14.3553L17.8447 40.8309C17.0952 41.7592 15.9607 42.2993 14.7615 42.2993C14.7615 42.2993 12.5707 42.2993 11.7438 42.2993C10.917 42.2993 10.2494 41.6284 10.3189 40.8123C10.3782 40.1098 10.9732 39.5573 11.6977 39.5573C12.4223 39.5573 14.7615 39.5573 14.7615 39.5573C15.1206 39.5573 15.4595 39.3957 15.6843 39.118L37.0609 12.6424C37.6809 11.8742 37.1288 10.7377 36.1381 10.7377H29.9193C29.5319 10.7377 29.1682 10.9265 28.9473 11.2429V11.2437Z" fill="#111111"/>
</g>
<defs>
<filter id="filter0_i_81_503" x="0" y="0.379395" width="234.727" height="50.1958" filterUnits="userSpaceOnUse" color-interpolation-filters="sRGB">
<feFlood flood-opacity="0" result="BackgroundImageFix"/>
<feBlend mode="normal" in="SourceGraphic" in2="BackgroundImageFix" result="shape"/>
<feColorMatrix in="SourceAlpha" type="matrix" values="0 0 0 0 0 0 0 0 0 0 0 0 0 0 0 0 0 0 127 0" result="hardAlpha"/>
<feOffset dy="0.536503"/>
<feGaussianBlur stdDeviation="0.268252"/>
<feComposite in2="hardAlpha" operator="arithmetic" k2="-1" k3="1"/>
<feColorMatrix type="matrix" values="0 0 0 0 0 0 0 0 0 0 0 0 0 0 0 0 0 0 0.25 0"/>
<feBlend mode="normal" in2="shape" result="effect1_innerShadow_81_503"/>
</filter>
</defs>
</svg>
